<svg xmlns="http://www.w3.org/2000/svg" viewBox="0 0 64 64" width="24" height="24"><path fill="#2d3e50" d="M57.8 10.1c-.4-2.7-2-4.9-4.7-5.7-1.3-.5-2.6-.7-3.9-.4-1.4 0-2.7.4-3.9 1-6.1 3-4.2 10.9-1.8 15.7.7 1.4 1.7 2.4 2.7 3.3 1.2 1 2.6 1.5 3.9 1.3 1.4 0 2.8-.5 3.8-1.7 2.9-3.5 4-7.7 4.1-12.2-.2-.4-.1-.9-.2-1.3zM59.6 30.6c-1.2-1.4-3.1-2.3-5.1-2.4-.9-.1-1.9.1-2.9.3-1.6.5-3.1 1.2-4.5 1.9L40.9 33l-4.3 1.8-6.2-8.5c-1.2-1.5-3.5-1.7-5-.5l-.2.2-.3.3c-1.2 1.3-1.3 3.3-.2 4.6l7.1 10c.2.3.4.5.6.7.4.5 1 .8 1.6 1.1.2.1.5.2.8.3.5.1 1 .2 1.5.1.4 0 .7-.1 1-.2l6.5-1.5c-.1 1-.1 3-.2 5.3-.1 3-.2 6.4-.3 7.3-.1 1.1.6 2.1 1.7 2.4l15.2 3.8c.2 0 .4.1.5.1.5 0 .9-.1 1.3-.4.5-.4.8-1 .9-1.6.1-1.3.1-2.6.2-3.9v-.2c.3-4.9.1-19.2-3.5-23.6z" class="color2d3e50 svgShape"></path><path fill="#2e79be" d="m3.6 7.5 2.8 1.2c.6.3.9 1 .6 1.6-.2.7-1 .9-1.6.7L2.6 9.7c-.6-.3-.9-1-.6-1.6.3-.6 1-.9 1.6-.6zM1.8 15.7l3.1-.2c.7-.1 1.3.5 1.3 1.1.1.7-.5 1.3-1.1 1.3l-3.1.3c-.7.1-1.3-.5-1.3-1.1 0-.7.5-1.3 1.1-1.4zM4.2 23.8l2.6-1.7c.6-.4 1.3-.2 1.7.4.4.6.2 1.3-.4 1.7l-2.6 1.7c-.6.4-1.3.2-1.7-.4-.3-.6-.1-1.3.4-1.7zM33.4 15.3c-.1-.6-.2-1.2-.5-1.8-.4-.9-.9-1.3-1.8-1.6-.1-.9-.5-1.5-1.2-1.8-.3-.1-.5-.2-.8-.2-1.1 0-5.3.1-6.2.1h-.6c-.9 0-1.7.1-2.5-.2-.6-.2-1.1-.5-1.7-.8-.3-.2-.6-.4-.9-.5l-.6-.3-.6-.3c-.7-.9-1.6-1.4-2.7-1.4-.8 0-1.5.4-2.1 1.1-1.5 1.6-2.3 4.9-2.2 8.6.1 2.4.6 4.6 1.4 6.3 1 2 2.3 3 3.7 3 .8 0 1.5-.4 2.1-1.1.2-.2.4-.5.6-.8l.3-.2c.1-.1.3-.2.4-.3.7-.5 1.4-1 2.2-1.3 1.1-.4 2.4-.5 3.6-.5h1.9c.1.7.2 1.5.6 2.3 1.2-.4 2.5-.3 3.6.1l.3-2.4c.8-.2 1.3-.9 1.5-1.8 1.4-.5 2.2-1.8 2.1-3.6.2-.2.2-.4.1-.6zm-18.8 7.5c-.1.1-.4.3-.6.3-.4 0-1-.5-1.6-1.7-.7-1.4-1.1-3.4-1.2-5.4-.2-3.5.7-6 1.5-6.9.3-.1.5-.3.7-.3.8 0 2.5 2.4 2.7 7.1.2 3.5-.6 6-1.5 6.9z" class="color2e79be svgShape"></path><path fill="#2e79be" d="M14.9 18.9c.1-.8.1-1.7.1-2.6-.1-1.3-.2-2.4-.5-3.3-1.1.4-1.7 1.3-1.8 2.8-.1 1.5.7 2.5 2.2 3.1z" class="color2e79be svgShape"></path></svg>