<svg xmlns="http://www.w3.org/2000/svg" viewBox="0 0 64 64" width="24" height="24"><path fill="#2e79be" d="M33.1 16.4c0 1.3-1.1 2.4-2.4 2.4-1.3 0-2.4-1.1-2.4-2.4 0-1.4 1.1-2.4 2.5-2.5.6 0 1.2.3 1.7.7.3.6.6 1.2.6 1.8zM28.2 37.4h7.7c.4 0 .8-.1 1.1-.2.9-.4 1.3-1.3 1.1-2.3-.2-1-1-1.7-2.1-1.7h-1.9v-8.6c0-1.4-.9-2.3-2.3-2.3H29.4c-1.3 0-2.2.8-2.3 2-.1 1 .6 1.9 1.8 2.3.4.1.9.6.9 1.1v5.5h-1.9c-1.3 0-2.3.9-2.3 2.2.3 1.1 1.2 2 2.6 2z" class="color2e79be svgShape"></path><path fill="#2d3e50" d="M50.5 15.2C45 4.9 35.4 4.1 32.6 4.1h-1c-2.8 0-12.4.8-17.9 11v.1c-.2.4-4.9 10.7 1.3 20.8.1.2 3.7 5.7 4.1 6.3.4.7.7 2.4.8 3.6V53.2c.1 1.4 1.1 2.5 2.5 2.7.8.1 1.7.2 2.9.3.8 0 1 .3 1 .5 1 2 3.2 3.2 5.8 3.2 1.3 0 2.4-.3 3.4-.8s1.7-1.3 2.2-2.3c.1-.2.3-.6 1.2-.6.9 0 1.6-.1 2.3-.1 2-.2 3.2-1.5 3.1-3.6 0-.4-.1-.8-.1-1.1-.1-.5-.1-.9-.1-1.2 0-.6.1-4.1.2-4.7.1-1.1.3-2.4.8-3.1.4-.6 3.9-6.1 4.1-6.3 6.2-10.3 1.5-20.5 1.3-20.9zm-4.2 19c-.2.3-3.7 5.6-4.1 6.2-.2.3-.3.5-.5.8-.7 1.5-2.3 2.5-4 2.5h-12c-1.6 0-3-1-3.5-2.4-.1-.4-.3-.7-.5-1-.4-.6-3.8-5.9-4.1-6.2-5.1-8.3-1.4-17-1.2-17.6 6.5-12.2 24.4-12.1 30.9 0 .4.7 4.1 9.4-1 17.7z" class="color2d3e50 svgShape"></path><path fill="#2e79be" d="M10.4 39.2c-.1.2-.3.7-.7 1-1 .7-2 1.2-3.1 1.8-.8.4-1.6.1-2-.6-.4-.7-.2-1.5.6-2 1-.6 2-1.2 3-1.7 1-.6 2.2.1 2.2 1.5zM8.8 12.2c-.1 0-.4-.1-.7-.3l-2.7-1.5c-.9-.6-1.1-1.4-.7-2.1.4-.8 1.3-1 2.2-.5 1 .6 1.9 1.1 2.9 1.7.6.4.8 1 .6 1.7-.2.6-.8 1-1.6 1zM5.7 26.2c-.1 0-.4.1-.8.1-1 0-2.1 0-3.1-.1-1 0-1.7-.6-1.6-1.5 0-.9.7-1.4 1.7-1.4 1.1 0 2.2 0 3.3.1.7 0 1.2.5 1.3 1.2.3.6 0 1.2-.8 1.6zM62.8 26.2c-.1 0-.4.1-.8.1-1 0-2.1 0-3.1-.1-1 0-1.7-.6-1.6-1.5 0-.9.7-1.4 1.7-1.4 1.1 0 2.2 0 3.3.1.7 0 1.2.5 1.3 1.2.2.6-.1 1.2-.8 1.6zM53.6 39.2c.1.2.3.7.7 1 1 .7 2 1.2 3.1 1.8.8.4 1.6.1 2-.6.4-.7.2-1.5-.6-2-1-.6-2-1.2-3-1.7-1-.6-2.2.1-2.2 1.5zM55.2 12.2c.1 0 .4-.1.7-.3l2.7-1.5c.9-.5 1.1-1.3.7-2.1-.4-.8-1.3-.9-2.2-.4-1 .6-1.9 1.1-2.9 1.7-.6.4-.8 1-.6 1.7.2.5.8.9 1.6.9z" class="color2e79be svgShape"></path></svg>