<svg xmlns="http://www.w3.org/2000/svg" enable-background="new 0 0 64 64" viewBox="0 0 64 64" width="24" height="24"><path fill="#333333" d="M39,49c-3.573,0-7.015-0.77-10.23-2.288l0.854-1.809C32.57,46.294,35.725,47,39,47    c12.131,0,22-9.869,22-22S51.131,3,39,3s-22,9.869-22,22c0,3.101,0.638,6.107,1.896,8.934l-1.827,0.813    C15.696,31.663,15,28.383,15,25C15,11.767,25.767,1,39,1s24,10.767,24,24S52.233,49,39,49z" class="color333 svgShape"></path><path fill="#333333" d="M39,44c-2.841,0-5.599-0.632-8.197-1.878l0.865-1.804C33.994,41.434,36.461,42,39,42    c9.374,0,17-7.626,17-17S48.374,8,39,8s-17,7.626-17,17c0,2.417,0.512,4.772,1.521,7L21.7,32.825C20.572,30.337,20,27.704,20,25    c0-10.477,8.523-19,19-19s19,8.523,19,19S49.477,44,39,44z" class="color333 svgShape"></path><path fill="#333333" d="M39,39c-2.148,0-4.227-0.488-6.177-1.45l0.885-1.794C35.38,36.582,37.161,37,39,37    c6.617,0,12-5.383,12-12s-5.383-12-12-12s-12,5.383-12,12c0,1.75,0.381,3.455,1.134,5.065l-1.812,0.847    C25.445,29.034,25,27.045,25,25c0-7.72,6.28-14,14-14s14,6.28,14,14S46.72,39,39,39z" class="color333 svgShape"></path><path fill="#333333" d="M39,34c-1.444,0-2.885-0.355-4.169-1.028l0.928-1.771C36.771,31.731,37.862,32,39,32    c3.86,0,7-3.14,7-7s-3.14-7-7-7s-7,3.14-7,7c0,1.085,0.249,2.134,0.74,3.118l-1.789,0.894C30.32,27.748,30,26.398,30,25    c0-4.962,4.038-9,9-9s9,4.038,9,9S43.962,34,39,34z" class="color333 svgShape"></path><path fill="#333333" d="M39,29c-2.206,0-4-1.794-4-4s1.794-4,4-4s4,1.794,4,4S41.206,29,39,29z M39,23    c-1.103,0-2,0.897-2,2s0.897,2,2,2s2-0.897,2-2S40.103,23,39,23z" class="color333 svgShape"></path><polygon fill="#ffa64d" points="1 41 1 43 23 41 20 63 22 63 39 25" class="colorffa64d svgShape"></polygon><rect width="2.828" height="2" x="16.586" y="45" fill="#333333" transform="rotate(-45.001 18 46)" class="color333 svgShape"></rect><rect width="2.828" height="2" x="12.586" y="49" fill="#333333" transform="rotate(-45.001 14 50)" class="color333 svgShape"></rect><rect width="2.828" height="2" x="8.586" y="53" fill="#333333" transform="rotate(-45.001 10 54)" class="color333 svgShape"></rect><rect width="2.828" height="2" x="4.586" y="57" fill="#333333" transform="rotate(-45.001 6 58)" class="color333 svgShape"></rect></svg>